<svg id="Capa_1" data-name="Capa 1" xmlns="http://www.w3.org/2000/svg" viewBox="0 0 1655.29 439.2"><defs><style>.cls-1{fill:#e84f1b;}.cls-2{fill:#e84f1c;}.cls-3{fill:#020202;}.cls-4{fill:#030303;}.cls-5{fill:#040404;}.cls-6{fill:#080808;}.cls-7{fill:#090909;}.cls-8{fill:#060606;}.cls-9{fill:#0c0c0c;}.cls-10{fill:#050505;}.cls-11{fill:#0a0a0a;}.cls-12{fill:#0f0f0f;}.cls-13{fill:#0d0d0d;}.cls-14{fill:#010101;}.cls-15{fill:#e95524;}</style></defs><path class="cls-1" d="M0,126.76a16.29,16.29,0,0,0,1-2.61C4.76,105.46,17.54,94.08,36.6,93A61.64,61.64,0,0,1,52,93.81c12.31,2.43,19.08,9.25,22.33,21.46.43-.21,1-.31,1.23-.64,14.59-18.7,34.69-24.32,57.16-23.31,20.8.93,39.12,8.61,54.75,22.47a11.08,11.08,0,0,0,1.46.9,104.08,104.08,0,0,1,34.37-17.52c26.6-7.61,52.46-6.62,76.36,8.6,21.5,13.68,32.67,33.53,32.76,59.18.1,31.27,0,62.54,0,93.82v45.14H246v-5.68c0-36.76-.05-73.52,0-110.29,0-7.19-2.31-13-8.24-17.17a18.58,18.58,0,0,0-29.17,13.47c-.17,1.82-.18,3.65-.18,5.48q0,54.39,0,108.79v5.73H123.09v-6c0-37.26,0-74.52-.09-111.78a24.06,24.06,0,0,0-2-10.06c-3.95-8.27-11.89-11.68-20.83-9.64-8.73,2-14.37,8.6-15,17.64-.09,1.32,0,2.66,0,4v116H0Z"/><path class="cls-2" d="M449.48,304.21H355.29c-.12-1.59-.31-3-.32-4.44q0-91.8,0-183.61c0-12.2,6.14-21.69,14.88-29.32,15.59-13.62,33.05-16.22,52.43-8.25,11.28,4.65,23.08,8,34.64,12l.81-.94c-1.95-4.06-3.91-8.13-6.14-12.75,2,.52,3.6.88,5.14,1.31C465.1,80.52,470,78,473,69.7c1.24-3.4,2.46-6.82,4-11.14,1.27,2.86,2.19,4.87,3,6.91q9.27,22,18.51,44.05c2.52,6,1.88,11.72-1.3,17.18-3.35,5.74-8.47,8.5-15.09,7.26-9-1.69-17.87-3.8-26.8-5.72L449.48,127Zm-69-179.47v56.84l5.13-.3V124.74Z"/><path class="cls-3" d="M695.85,214.43c-1.2,27.66,19.57,59.18,53.09,63.24,14.94,1.82,29-1.87,43.2-5.66,1.92-.52,3.83-1.08,5.76-1.57.28-.07.63.14,1.24.3,2.34,8.26,4.71,16.66,7.16,25.31-19.26,8.27-38.69,13.76-59.69,11.78-37.73-3.56-63.89-23.32-78.11-57.81-14.46-35.1-13.59-70.42,4-104.48,12.47-24.13,31.61-41.06,58.4-47.62,39.44-9.65,76.74,7.5,96.33,43.61A113.5,113.5,0,0,1,841,195a50.49,50.49,0,0,1-.45,6.95c-.86,6.57-4.09,10.22-10.58,11.52a51.44,51.44,0,0,1-9.91.95q-59.46.09-118.92,0Zm110.66-26c-1.5-19.23-7.25-36.21-20.29-50.17a48.44,48.44,0,0,0-67.07-3.81c-16.33,14.13-21,33.68-24.47,54Z"/><path class="cls-3" d="M1575.82,252.26c4.69-14.25,9-27.3,13.27-40.36q16.65-51.06,33.29-102.11a32.67,32.67,0,0,1,2.86-6.32c4.57-7.78,12.07-10.48,20-7.32s11.91,10.87,9.28,19.51c-4.49,14.74-9.13,29.45-14.25,44q-37.9,107.61-76.13,215.1a36.6,36.6,0,0,1-3.45,7.16c-4.65,7.45-11.75,9.59-19.82,6.18-7.55-3.18-11.36-10.07-8.71-18.29,5.08-15.76,10.8-31.31,16.44-46.89,2.71-7.48,6-14.75,8.67-22.24a10.56,10.56,0,0,0,.06-6.53q-31.47-90.37-63.18-180.66c-.59-1.7-1.14-3.4-1.8-5.36L1524.18,98Z"/><path class="cls-4" d="M962.64,102.64H996v5.07q0,60.12,0,120.23a66.42,66.42,0,0,0,4.17,24.38c5.15,13.25,14.49,21.53,28.45,24.55a70.75,70.75,0,0,0,34.1-.59c18.32-5,26.69-18.58,29.59-36.23a96.55,96.55,0,0,0,1-15.39c.09-37.59,0-75.17.07-112.75,0-11.63,10.73-19.65,21.42-16.12a15.38,15.38,0,0,1,10.54,11.62,33.56,33.56,0,0,1,.81,7.89q.08,55.62,0,111.25c0,12-1.17,23.9-5.2,35.3-7.51,21.25-22.39,35.07-43.86,41.39a113.42,113.42,0,0,1-64.49.22c-27.51-8-43.16-26.84-48-54.68A144.5,144.5,0,0,1,962.73,225c-.19-38.74-.09-77.49-.09-116.24Z"/><path class="cls-3" d="M1284.14,102.65h33.16v5.07c0,40.24-.06,80.48.07,120.72a72.26,72.26,0,0,0,1.63,15.31c4.78,21.69,17.58,32.91,39.78,34.44a91,91,0,0,0,21.36-1.05c17.76-3,29.56-15.45,32.94-34.14a103.28,103.28,0,0,0,1.57-17.82q.21-55.87,0-111.74c0-4.64.77-8.89,3.94-12.49,4.6-5.23,10.22-7.26,17-5.26s10.34,6.9,11.51,13.63a36,36,0,0,1,.24,6q0,55.38,0,110.75c0,10.5-.78,20.91-3.64,31.07-6.65,23.63-21.92,39.16-45.31,46.13a112.49,112.49,0,0,1-65.44,0c-25.89-7.78-41.34-25.61-46.57-52a118.61,118.61,0,0,1-2.2-22.25c-.21-41.07-.1-82.14-.1-123.22Z"/><path class="cls-3" d="M643.13,114,627.5,140.71c-6.71-3.26-13.08-6.43-19.51-9.48-27.29-12.91-59.33-5.4-73.79,25.23-16.5,34.91-14.41,69.4,8.75,101.11,10.59,14.5,25.59,21.91,43.92,18.69,8.22-1.45,16-5.28,24-8.06,1.88-.65,3.67-1.54,5.56-2.14,7.6-2.42,14.73.07,18.67,6.44,3.61,5.83,2.48,14.52-2.85,19.71-6.38,6.2-14.37,9.44-22.86,11.54-20.29,5-40.55,5.58-60.34-1.87-23.25-8.75-40-24.9-49.67-47.63-15.33-36.1-15.23-72.54,1.66-108,13.06-27.44,35-44.74,65.44-49.94,23.81-4.06,46.26.48,67.35,12.09,2.76,1.53,5.56,3,8.33,4.49C642.42,113,642.58,113.35,643.13,114Z"/><path class="cls-5" d="M918,304.62H885.65c-.1-1.37-.29-2.79-.29-4.2,0-93.15.1-186.29-.18-279.44,0-10.32,9.16-20.83,21.1-17.1,6.31,2,9.93,6.43,11.21,12.76a35,35,0,0,1,.52,7Q918,161.8,918,300Z"/><path class="cls-2" d="M455.91,34.93A34.58,34.58,0,0,1,421.2,69.87a34.94,34.94,0,1,1,0-69.87A34.48,34.48,0,0,1,455.91,34.93Z"/><path class="cls-6" d="M130.78,417.88h-9v-50.2h7.59c.22,1.95.47,4.14.73,6.53,11.64-12.58,25-9,30,.32,3.92-2.51,7.59-5.85,11.91-7.41,8.77-3.17,17.27,1.37,20.37,10.12a21.72,21.72,0,0,1,1.49,6.78c.15,11.12.07,22.25.07,33.71h-9v-6.08c0-7,.06-14,0-20.95a38.33,38.33,0,0,0-.76-7.41c-1.41-6.63-5.07-9.57-11-9.13a11.56,11.56,0,0,0-10.27,11c-.21,9-.06,18-.06,26.94,0,1.79,0,3.59,0,5.65h-9.39c0-3.9,0-7.83,0-11.77-.07-6.81.09-13.64-.35-20.43-.49-7.69-4.25-11.54-10.38-11.44S131.08,379.9,131,386.73c-.14,9.47,0,18.95,0,28.43C130.94,416,130.84,416.76,130.78,417.88Z"/><path class="cls-7" d="M440.88,411.58V438.4h-9V367.62h7.72l.81,6.38c3.4-2.22,6.38-4.93,9.89-6.33C462,363,474.07,369,478.18,381.23a35,35,0,0,1-.07,22A21.93,21.93,0,0,1,440.88,411.58Zm14.17-.21c5.68.07,10-2.37,12.6-7.37a24.43,24.43,0,0,0,1.07-20.71c-2.34-6.15-7.75-9.76-13.82-9.46S443,378.53,442,385a54.82,54.82,0,0,0-.17,15.77C442.63,407.06,448.54,411.27,455.05,411.37Z"/><path class="cls-4" d="M1225.52,289.24c1,9.25-8.54,20.28-20.38,20.05-11.43-.22-20.69-9.28-20.62-20.54a20.47,20.47,0,0,1,20.31-20.29C1215.22,268.38,1226.41,277,1225.52,289.24Z"/><path class="cls-8" d="M8.18,417.75v-70H45.84v7.61H17.39v21.77H44.61v7.8H17.48v25.19H47.63v7.64Z"/><path class="cls-6" d="M670.62,392.68c.07-18.69,15.26-30.47,32.77-25.42,9.82,2.83,15.82,10.86,17,22.72,1.81,18.66-13.21,32.22-31.36,28.29C677.69,415.83,670.57,405.92,670.62,392.68Zm40.76-.32c-1.25-3.88-2-8.05-3.86-11.58-5.24-9.72-18-9.93-24.06-.67-4.56,7-4.36,18.67.43,25.44,5.52,7.8,16,8.25,22.15.9C709.36,402.45,710.52,397.7,711.38,392.36Z"/><path class="cls-6" d="M324,366.28c13,0,22.52,8.19,23.92,21.22a38.69,38.69,0,0,1-.72,13.28,24.14,24.14,0,0,1-26.79,18.09c-13.09-1.79-21.44-11.24-21.51-24.46a40,40,0,0,1,.6-8.42C302.08,373.54,311.24,366.27,324,366.28Zm15,24c-.89-2.35-1.93-7.16-4.39-11.08-4.78-7.62-16.14-7.71-21.79-.69-6,7.45-6.1,20.28-.22,27.81a13.53,13.53,0,0,0,20.87,1C337.22,403.15,338.45,398.07,338.91,390.24Z"/><path class="cls-7" d="M1041.14,394.05c.37,11.25,5.94,17.29,16.26,17.49,4.73.09,9.48-1.05,14.81-1.7l1.62,6c-10.44,3.68-20.72,5.31-30.67-.32s-12-15.34-11.12-25.84c1-11.5,7.29-19.73,16.75-22.42,14.45-4.1,26.63,4.46,27.6,19.45.15,2.29,0,4.61,0,7.37Zm26.09-6.85c.07-8.58-4.26-13.78-11.5-14.06-7.9-.3-13.62,5.28-14.24,14.06Z"/><path class="cls-9" d="M831.42,417.81h-9.58V367.59h7.67c.29,2,.6,4.09.84,5.68,3.87-2.09,7.58-4.94,11.77-6.2,10.82-3.25,21.18,3.08,22.31,14.28,1.21,12,.93,24.11,1.31,36.45H855.68c0-8.24,0-16.32,0-24.41,0-2.66.07-5.33-.19-8-.73-7.26-5-11.35-11.41-11.27a12.63,12.63,0,0,0-12.6,12.23c-.2,8.47-.05,16.94-.05,25.42C831.41,413.62,831.42,415.44,831.42,417.81Z"/><path class="cls-7" d="M769.78,394.13c0,10.75,6.71,18.36,19.26,17.45,3.92-.29,7.78-1.27,12-2l1.59,6.21c-9.23,3.49-18.42,4.64-27.73,1.19a20.48,20.48,0,0,1-12.73-13.75,32,32,0,0,1,1.26-23.3A22.74,22.74,0,0,1,792,367.42a17.62,17.62,0,0,1,9.75,8.07,27.7,27.7,0,0,1,3.11,18.64Zm.45-7.09H796.3c-.78-9.26-4.8-13.76-12.12-13.9C776.54,373,771.44,378.05,770.23,387Z"/><path class="cls-7" d="M250.81,409.63c.41,1.76.89,3.8,1.46,6.2-9.53,3.52-18.89,4.72-28.3.86-8.9-3.65-14.14-12.84-13.52-24a40.33,40.33,0,0,1,2.62-12.55c4.54-11.32,17.47-16.78,28.94-12.65a18.06,18.06,0,0,1,10.11,9.11c2.84,5.49,3.35,11.28,2.66,17.65H219.71c.34,11.52,6.95,17.88,18.11,17.33C242.05,411.38,246.25,410.35,250.81,409.63ZM220,387.08h25.92c-.23-8.67-4.35-13.38-11.33-14C226.37,372.39,220.16,379.82,220,387.08Z"/><path class="cls-7" d="M575.6,394.29H540.81c-.5,9.66,4.74,16.34,14.1,17,5.35.37,10.79-.71,16.83-1.19.27,1.1.76,3.13,1.24,5.09-7.18,5-24.71,5.16-32.35-.72-7.81-6-11.45-17.69-8.45-29.38,2.3-8.95,7.28-15.51,16.67-18,13.59-3.54,24.76,3.79,26.7,17.73C576,387.74,575.6,390.75,575.6,394.29Zm-9-7.12c.14-8.55-4.23-13.79-11.49-14-7.89-.26-13.6,5.33-14.22,14Z"/><path class="cls-7" d="M1092.46,370.78c7.34-4.19,14.74-5.51,22.49-3.95,8.09,1.63,12.7,7.15,13.4,15.77.33,4.13.21,8.3.23,12.45,0,7.45,0,14.91,0,22.69h-7.44c-.3-1.66-.62-3.41-.82-4.48-4.17,1.76-8.33,4.18-12.81,5.26-7.73,1.86-15.1-2.14-17.61-8.7a15.91,15.91,0,0,1,6.92-19.41c5.72-3.46,12.17-4.18,18.65-4.67,1.13-.08,2.28,0,3.38,0,1-7.57-2.73-12.48-10-12.29-4.68.13-9.33,1.61-14.4,2.55C1094,374.87,1093.34,373.05,1092.46,370.78Zm27,21.61c-6-.42-11.49.06-16.51,3a9.09,9.09,0,0,0-4.5,9.7,8.32,8.32,0,0,0,7,6.78c6.28,1.22,13.4-4,14-10.35C1119.71,398.57,1119.5,395.62,1119.5,392.39Z"/><path class="cls-10" d="M972.4,367.43H980c.22,2.17.45,4.38.72,7a49,49,0,0,1,4.81-4.36c6.2-4.28,12.89-5.17,19.82-2.05s9.71,9.11,10,16.05c.42,11.09.11,22.22.11,33.64h-9.16c0-2.31,0-4.73,0-7.14-.11-8.3.18-16.63-.51-24.88s-5-11.93-12-11.57c-6.73.34-12,5.91-12.2,13.34-.2,7.8,0,15.61-.06,23.42v6.79H972.4Z"/><path class="cls-11" d="M627.13,409.2c.55,2.37,1,4.43,1.5,6.42-11.43,5.95-26.29,3.87-33.69-4.57-7.69-8.75-8.25-24.66-1.21-34.35,7.26-10,21.44-13.25,35.1-7.7l-2,6.85c-9.67-2.9-18.59-3.86-25.14,5.11-4.61,6.32-4.43,17.19,0,23.5C606.65,411.36,614.21,412.85,627.13,409.2Z"/><path class="cls-12" d="M921.83,417.91h-9.07V344.05h9.07Z"/><path class="cls-12" d="M64.49,344.06h9.14V417.7H64.49Z"/><path class="cls-4" d="M272.85,367.52h9c0,18,.35,35.75-.14,53.48-.27,9.78-7.18,18.86-21.4,18.17l-.81-6.21c.29-.27.48-.62.75-.68,9.78-2.43,12.17-5.07,12.4-15.59.32-14.46.18-28.93.24-43.4Z"/><path class="cls-13" d="M389.83,365.65V375c-11.2,1-15.38,5.58-15.46,17-.05,7,0,13.94,0,20.91v5h-9.25V367.64h7.56c.15,2.1.32,4.32.52,7.06,2.74-2.46,4.81-5.05,7.49-6.52S386.5,366.51,389.83,365.65Z"/><path class="cls-5" d="M521.51,375.26c-10.26.06-15.18,4.69-15.65,15-.34,7.46-.1,14.95-.12,22.42,0,1.64,0,3.27,0,5.15h-9V367.7h7.69c.1,2.34.22,4.93.38,8.48,4.08-6.64,8.81-10.93,16.74-9.63Z"/><path class="cls-14" d="M653.55,367.54v50.29h-8.78V367.54Z"/><path class="cls-14" d="M951.39,417.86h-8.63V367.5h8.63Z"/><path class="cls-15" d="M442.91,68c2.26-2,3.79-3.45,5.43-5l13,4.13c2.66-7.86,5.28-15.6,8-23.52l-9.46-3.58c.35-2.16.65-4,1-6.28,3.74,1.31,7.19,2.38,10.54,3.73,4,1.6,5.27,3.88,4,7.79-2.59,8.21-5.46,16.33-8.27,24.46-1,2.82-3,4.66-6.08,3.84C455.28,72,449.53,70.07,442.91,68Z"/><path class="cls-9" d="M941.72,360.28l9.07-14.73h10.55L948.8,360.28Z"/><path class="cls-13" d="M649.5,359.17a5.5,5.5,0,0,1-6-5.72,5.74,5.74,0,0,1,5.88-6,5.85,5.85,0,0,1,.16,11.7Z"/><path class="cls-7" d="M283,353.47c0,3.7-2.21,5.83-5.85,5.69a5.41,5.41,0,0,1-5.52-5.64c0-3.61,2.2-6,5.7-6S283.05,349.85,283,353.47Z"/><path class="cls-15" d="M462.8,52.81c-1.05,4.45-1.05,4.45-4.5,5.4-2.38-1.94-1.54-4.15-.11-6S461.29,50.72,462.8,52.81Z"/></svg>